HIERARCHY
ROOT hip
{
	OFFSET 0.000000 0.000000 0.000000
	CHANNELS 6 Xposition Yposition Zposition Xrotation Zrotation Yrotation 
	JOINT abdomen
	{
		OFFSET 0.000000 3.422050 0.000000
		CHANNELS 3 Xrotation Zrotation Yrotation 
		JOINT chest
		{
			OFFSET 0.000000 8.486693 -0.684411
			CHANNELS 3 Xrotation Zrotation Yrotation 
			JOINT neck
			{
				OFFSET 0.000000 10.266162 -0.273764
				CHANNELS 3 Xrotation Zrotation Yrotation 
				JOINT head
				{
					OFFSET 0.000000 3.148285 0.000000
					CHANNELS 3 Xrotation Zrotation Yrotation 
					End Site
					{
						OFFSET 0.000000 3.148289 0.000000
					}
				}
			}
			JOINT lCollar
			{
				OFFSET 3.422053 6.707223 -0.821293
				CHANNELS 3 Yrotation Zrotation Xrotation 
				JOINT lShldr
				{
					OFFSET 3.285171 0.000000 0.000000
					CHANNELS 3 Zrotation Yrotation Xrotation 
					JOINT lForeArm
					{
						OFFSET 10.129278 0.000000 0.000000
						CHANNELS 3 Yrotation Zrotation Xrotation 
						JOINT lHand
						{
							OFFSET 8.486692 0.000000 0.000000
							CHANNELS 3 Zrotation Yrotation Xrotation 
							End Site
							{
								OFFSET 4.106464 0.000000 0.000000
							}
						}
					}
				}
			}
			JOINT rCollar
			{
				OFFSET -3.558935 6.707223 -0.821293
				CHANNELS 3 Yrotation Zrotation Xrotation 
				JOINT rShldr
				{
					OFFSET -3.148289 0.000000 0.000000
					CHANNELS 3 Zrotation Yrotation Xrotation 
					JOINT rForeArm
					{
						OFFSET -10.266159 0.000000 0.000000
						CHANNELS 3 Yrotation Zrotation Xrotation 
						JOINT rHand
						{
							OFFSET -8.349810 0.000000 0.000000
							CHANNELS 3 Zrotation Yrotation Xrotation 
							End Site
							{
								OFFSET -4.106464 0.000000 0.000000
							}
						}
					}
				}
			}
		}
	}
	JOINT lThigh
	{
		OFFSET 5.338403 -1.642589 1.368821
		CHANNELS 3 Xrotation Zrotation Yrotation 
		JOINT lShin
		{
			OFFSET -2.053232 -20.121670 0.000000
			CHANNELS 3 Xrotation Zrotation Yrotation 
			JOINT lFoot
			{
				OFFSET 0.000000 -19.300380 -1.231939
				CHANNELS 3 Xrotation Yrotation Zrotation 
				End Site
				{
					OFFSET 0.000000 -2.463878 4.653993
				}
			}
		}
	}
	JOINT rThigh
	{
		OFFSET -5.338403 -1.642589 1.368821
		CHANNELS 3 Xrotation Zrotation Yrotation 
		JOINT rShin
		{
			OFFSET 2.053232 -20.121670 0.000000
			CHANNELS 3 Xrotation Zrotation Yrotation 
			JOINT rFoot
			{
				OFFSET 0.000000 -19.300380 -1.231939
				CHANNELS 3 Xrotation Yrotation Zrotation 
				End Site
				{
					OFFSET 0.000000 -2.463878 4.653993
				}
			}
		}
	}
}
MOTION
Frames: 6
Frame Time: 0.033264
12.762878 5.930695 2.472076 -85.999916 -3.004981 -114.991058 -0.528186 -14.824895 -0.588995 -0.758357 -21.027498 18.806194 28.875534 -16.369165 6.720940 -27.083090 -9.712174 2.252386 -14.320828 -22.679255 -3.606851 -14.910599 -7.556925 -19.113785 -36.749409 -29.374929 -4.083828 -27.146143 -19.233973 -23.144800 14.104067 1.030199 -0.830473 13.497337 48.333828 -2.669237 45.699528 -10.855211 -5.702971 1.517951 -4.747394 -2.035508 1.944855 26.254894 40.502201 62.548496 -49.663273 7.867225 13.611595 2.328721 5.489282 9.755045 -9.184243 -0.727312 53.873268 -9.080613 -1.737025 14.680794 -1.731548 -5.013694 
12.762878 5.930695 2.472076 -85.999916 -3.004981 -114.991058 -0.528186 -14.824895 -0.588995 -0.758357 -21.027498 18.806194 28.439445 -16.421288 6.079675 -27.083090 -9.712174 2.252386 -14.320828 -22.679255 -3.606851 -14.867667 -7.834816 -18.669149 -36.749409 -29.374929 -4.083828 -26.719526 -18.847916 -23.212713 14.104067 1.030199 -0.830473 13.497337 48.333828 -2.669237 45.699524 -10.855210 -5.702971 1.517951 -4.747394 -2.035508 1.944856 26.254892 40.502201 62.548489 -49.663269 7.867226 13.611595 2.328721 5.489282 9.755045 -9.184243 -0.727312 53.873260 -9.080612 -1.737025 14.680790 -1.731548 -5.013693 
12.762878 5.930695 2.472076 -85.999916 -3.004981 -114.991058 -0.528186 -14.824895 -0.588995 -0.758357 -21.027498 18.806194 28.004448 -16.478006 5.439523 -27.083090 -9.712174 2.252386 -14.320828 -22.679255 -3.606851 -14.826845 -8.113302 -18.223986 -36.749409 -29.374929 -4.083828 -26.293901 -18.460966 -23.277508 14.104067 1.030199 -0.830473 13.497337 48.333828 -2.669237 45.699524 -10.855210 -5.702971 1.517951 -4.747394 -2.035508 1.944856 26.254892 40.502201 62.548489 -49.663269 7.867226 13.611595 2.328721 5.489282 9.755045 -9.184243 -0.727312 53.873260 -9.080612 -1.737025 14.680790 -1.731548 -5.013693 
12.762878 5.930695 2.472076 -85.999916 -3.004981 -114.991058 -0.528186 -14.824895 -0.588995 -0.758357 -21.027498 18.806194 27.570637 -16.539288 4.800575 -27.083090 -9.712174 2.252386 -14.320828 -22.679255 -3.606851 -14.788152 -8.392355 -17.778296 -36.749409 -29.374929 -4.083828 -25.869226 -18.073164 -23.339199 14.104067 1.030199 -0.830473 13.497337 48.333828 -2.669237 45.699524 -10.855210 -5.702971 1.517951 -4.747394 -2.035508 1.944856 26.254892 40.502201 62.548489 -49.663269 7.867226 13.611595 2.328721 5.489282 9.755045 -9.184243 -0.727312 53.873260 -9.080612 -1.737025 14.680790 -1.731548 -5.013693 
12.762878 5.930695 2.472076 -85.999916 -3.004981 -114.991058 -0.528186 -14.824895 -0.588995 -0.758357 -21.027498 18.806194 27.138098 -16.605089 4.162921 -27.083090 -9.712174 2.252386 -14.320828 -22.679255 -3.606851 -14.751594 -8.671947 -17.332073 -36.749409 -29.374929 -4.083828 -25.445501 -17.684549 -23.397795 14.104067 1.030199 -0.830473 13.497337 48.333828 -2.669237 45.699524 -10.855210 -5.702971 1.517951 -4.747394 -2.035508 1.944856 26.254892 40.502201 62.548489 -49.663269 7.867226 13.611595 2.328721 5.489282 9.755045 -9.184243 -0.727312 53.873260 -9.080612 -1.737025 14.680790 -1.731548 -5.013693 
12.762878 5.930695 2.472076 -85.999916 -3.004981 -114.991058 -0.528186 -14.824895 -0.588995 -0.758357 -21.027498 18.806194 26.706936 -16.675388 3.526652 -27.083090 -9.712174 2.252386 -14.320828 -22.679255 -3.606851 -14.717181 -8.952048 -16.885307 -36.749409 -29.374929 -4.083828 -25.022692 -17.295160 -23.453304 14.104067 1.030199 -0.830473 13.497337 48.333828 -2.669237 45.699524 -10.855210 -5.702971 1.517951 -4.747394 -2.035508 1.944856 26.254892 40.502201 62.548489 -49.663269 7.867226 13.611595 2.328721 5.489282 9.755045 -9.184243 -0.727312 53.873260 -9.080612 -1.737025 14.680792 -1.731548 -5.013694 
